<svg version="1.1" id="Layer_1" xmlns="http://www.w3.org/2000/svg" xmlns:xlink="http://www.w3.org/1999/xlink" x="0px" y="0px"
	 width="100%" viewBox="0 0 223 226" enable-background="new 0 0 223 226" xml:space="preserve">
<path fill="#010100" opacity="1.000000" stroke="none" 
	d="
M1.000000,88.000000 
	C1.000000,58.666672 1.000000,29.833344 1.000000,1.000012 
	C75.333313,1.000008 149.666626,1.000008 223.999954,1.000004 
	C223.999969,76.333305 223.999969,151.666611 223.999985,226.999939 
	C149.666718,226.999954 75.333427,226.999954 1.000068,226.999969 
	C1.000000,180.833328 1.000000,134.666672 1.000000,88.000000 
M201.945480,173.992813 
	C204.571655,172.315750 207.197815,170.638687 209.978439,168.307693 
	C209.942734,167.863052 209.907043,167.418427 210.018753,166.049423 
	C210.094437,155.640900 210.170135,145.232391 209.631454,134.199509 
	C203.582321,134.199509 197.533188,134.199509 191.106186,134.199509 
	C191.106186,142.557190 191.106186,150.306854 190.554092,158.470154 
	C173.413071,168.354279 156.303299,178.293182 139.117889,188.099487 
	C130.483124,193.026657 121.710785,197.712738 112.435318,202.047134 
	C86.912750,187.362442 61.390179,172.677765 35.903538,157.057526 
	C36.030899,127.422890 36.158260,97.788254 36.962475,68.002579 
	C48.452320,61.349403 59.943989,54.699383 71.431549,48.042259 
	C85.329094,39.988522 99.223160,31.928776 113.817612,23.996000 
	C139.581100,38.958759 165.344574,53.921516 191.100327,69.828117 
	C191.100327,73.057800 191.100327,76.287483 191.100327,79.962502 
	C184.034348,79.962502 177.501694,79.962502 170.558228,79.427956 
	C152.778671,69.338791 135.008713,59.232571 117.198357,49.198074 
	C115.984879,48.514385 114.468109,48.369007 112.375237,48.072239 
	C94.953835,57.895561 77.520973,67.698715 60.131775,77.578735 
	C58.667233,78.410835 57.495525,79.758347 56.029232,81.808777 
	C56.029232,90.098862 56.029232,98.388947 56.029232,106.792091 
	C62.532661,108.781425 68.711288,110.699379 74.906670,112.561623 
	C100.154404,120.150749 125.407280,127.722816 150.734070,135.952194 
	C149.349289,137.014557 148.056900,138.233398 146.564957,139.114258 
	C135.708710,145.523758 124.812279,151.865219 113.221344,158.090347 
	C107.796402,154.987900 102.312294,151.983673 96.960602,148.759644 
	C89.252243,144.115860 81.640121,139.312317 73.092300,134.284332 
	C67.695740,134.318329 62.299175,134.352325 56.555965,134.312332 
	C56.291042,134.422653 56.195831,134.616409 56.059200,135.807404 
	C56.158318,139.528976 56.257435,143.250534 56.677490,147.530518 
	C75.471123,158.237656 94.264748,168.944778 113.537163,179.830383 
	C113.768127,179.615891 113.999092,179.401398 114.182228,179.279861 
	C114.182228,179.279861 114.278214,179.321274 114.961693,179.173920 
	C133.317749,168.458099 151.673798,157.742279 170.782242,146.582642 
	C170.909851,138.349960 171.063461,130.117416 171.113480,121.884270 
	C171.117294,121.256645 170.387650,120.624557 169.455078,119.511078 
	C140.491516,110.734680 111.521095,101.980682 82.577797,93.137932 
	C80.342873,92.455124 78.298637,91.148170 76.856522,89.994019 
	C88.941505,82.874451 101.026482,75.754883 113.794640,68.855240 
	C125.847893,76.199394 137.851471,83.627602 150.000931,90.808998 
	C152.147110,92.077560 154.895279,92.905144 157.377243,92.934311 
	C173.344437,93.121956 189.314926,93.039398 205.284302,93.018593 
	C207.032837,93.016319 208.781158,92.842522 210.899734,92.728333 
	C210.899734,81.710274 210.921692,71.253525 210.861740,60.797253 
	C210.856445,59.872868 210.316422,58.951550 209.572067,57.963867 
	C209.572067,57.963867 209.116196,57.927879 208.779922,57.312973 
	C203.725052,54.441990 198.624023,51.648811 193.624878,48.683872 
	C183.133331,42.461452 172.764679,36.029385 162.218689,29.901777 
	C147.342392,21.258091 132.364014,12.789490 117.385910,4.322751 
	C116.109932,3.601471 114.508209,3.456446 112.351624,3.133099 
	C81.967064,20.490435 51.577812,37.839596 21.215479,55.235725 
	C20.030907,55.914429 19.104027,57.042900 17.902987,58.834938 
	C17.956270,60.889050 18.009554,62.943157 17.878000,65.919037 
	C17.662888,76.893402 17.312885,87.867142 17.261179,98.842278 
	C17.158459,120.644882 17.205225,142.448288 17.244333,164.251266 
	C17.247196,165.847122 17.685871,167.442169 18.189566,169.674652 
	C24.496254,173.331696 30.789917,177.011398 37.111912,180.641785 
	C62.397186,195.161713 87.691269,209.666306 113.391273,224.647125 
	C121.269272,220.125824 129.147263,215.604523 137.726242,210.976089 
	C140.494812,209.319336 143.263382,207.662582 146.716095,205.867462 
	C149.843201,203.992767 152.970291,202.118057 156.789948,200.064377 
	C161.573822,197.062714 166.357697,194.061050 171.773804,190.994095 
	C172.887177,190.458496 174.000534,189.922882 175.813034,189.191925 
	C179.594193,186.955200 183.375351,184.718475 187.198807,182.437393 
	C187.198807,182.437393 187.175339,182.380768 187.809616,182.254669 
	C188.311157,181.875900 188.812714,181.497147 189.833221,181.044052 
	C190.233490,180.727829 190.633743,180.411621 191.734741,179.975998 
	C194.914322,178.032608 198.093918,176.089233 201.945480,173.992813 
z"/>
<path fill="#458FC6" opacity="1.000000" stroke="none" 
	d="
M150.658264,135.301163 
	C125.407280,127.722816 100.154404,120.150749 74.906670,112.561623 
	C68.711288,110.699379 62.532661,108.781425 56.029232,106.792091 
	C56.029232,98.388947 56.029232,90.098862 56.450745,81.426117 
	C59.610657,82.493423 62.295826,84.057610 65.100723,85.364906 
	C68.739189,87.060722 72.473000,88.551994 76.165764,90.131317 
	C78.298637,91.148170 80.342873,92.455124 82.577797,93.137932 
	C111.521095,101.980682 140.491516,110.734680 169.725861,120.221863 
	C169.991104,129.289520 169.985596,137.646408 169.665100,145.861176 
	C163.119507,142.246429 156.888885,138.773788 150.658264,135.301163 
z"/>
<path fill="#FCEF04" opacity="1.000000" stroke="none" 
	d="
M113.057816,3.043722 
	C114.508209,3.456446 116.109932,3.601471 117.385910,4.322751 
	C132.364014,12.789490 147.342392,21.258091 162.218689,29.901777 
	C172.764679,36.029385 183.133331,42.461452 193.624878,48.683872 
	C198.624023,51.648811 203.725052,54.441990 208.709686,57.874393 
	C202.795654,61.918636 196.951859,65.401459 191.108063,68.884277 
	C165.344574,53.921516 139.581100,38.958759 113.443207,23.475945 
	C113.065132,16.318499 113.061470,9.681110 113.057816,3.043722 
z"/>
<path fill="#EE572D" opacity="1.000000" stroke="none" 
	d="
M112.982094,224.176559 
	C87.691269,209.666306 62.397186,195.161713 37.111912,180.641785 
	C30.789917,177.011398 24.496254,173.331696 18.351738,169.176758 
	C24.298473,165.116928 30.083038,161.554993 35.867607,157.993073 
	C61.390179,172.677765 86.912750,187.362442 112.719177,202.711365 
	C112.996056,210.309250 112.989075,217.242905 112.982094,224.176559 
z"/>
<path fill="#FBC014" opacity="1.000000" stroke="none" 
	d="
M112.704720,3.088411 
	C113.061470,9.681110 113.065132,16.318499 113.093765,23.413757 
	C99.223160,31.928776 85.329094,39.988522 71.431549,48.042259 
	C59.943989,54.699383 48.452320,61.349403 36.260601,67.999283 
	C30.370165,65.004402 25.181604,62.012821 19.805962,58.807472 
	C19.098278,58.383068 18.577677,58.172432 18.057074,57.961796 
	C19.104027,57.042900 20.030907,55.914429 21.215479,55.235725 
	C51.577812,37.839596 81.967064,20.490435 112.704720,3.088411 
z"/>
<path fill="#F49823" opacity="1.000000" stroke="none" 
	d="
M19.993042,59.021240 
	C25.181604,62.012821 30.370165,65.004402 35.922173,68.074799 
	C36.158260,97.788254 36.030899,127.422890 35.885571,157.525299 
	C30.083038,161.554993 24.298473,165.116928 18.217918,168.858231 
	C17.685871,167.442169 17.247196,165.847122 17.244333,164.251266 
	C17.205225,142.448288 17.158459,120.644882 17.261179,98.842278 
	C17.312885,87.867142 17.662888,76.893402 18.257616,65.386520 
	C19.089169,62.909748 19.541105,60.965496 19.993042,59.021240 
z"/>
<path fill="#EA443C" opacity="1.000000" stroke="none" 
	d="
M113.186684,224.411835 
	C112.989075,217.242905 112.996056,210.309250 113.001854,202.941711 
	C121.710785,197.712738 130.483124,193.026657 139.117889,188.099487 
	C156.303299,178.293182 173.413071,168.354279 191.101715,158.427094 
	C193.121506,159.578659 194.593674,160.773285 195.715378,162.076508 
	C193.921295,168.155197 192.477646,174.125290 191.033997,180.095398 
	C190.633743,180.411621 190.233490,180.727829 189.239655,181.104095 
	C188.155838,181.569672 187.665588,181.975220 187.175339,182.380768 
	C187.175339,182.380768 187.198807,182.437393 186.947845,182.117645 
	C185.340759,176.667282 183.984634,171.536667 182.628510,166.406067 
	C182.051910,166.306168 181.475311,166.206268 180.898727,166.106369 
	C179.938217,168.342209 178.604538,170.496109 178.091995,172.830307 
	C176.890244,178.303391 176.081635,183.862793 175.113892,189.387268 
	C174.000534,189.922882 172.887177,190.458496 171.081299,190.996643 
	C169.102036,189.646164 167.495132,188.471405 166.615509,186.891693 
	C165.672745,185.198624 165.651947,183.003220 164.764160,181.264252 
	C164.268631,180.293625 162.907913,179.516602 161.784515,179.208496 
	C161.120209,179.026276 159.528244,179.811966 159.426239,180.361511 
	C158.200226,186.967194 157.175034,193.610138 156.097397,200.243362 
	C152.970291,202.118057 149.843201,203.992767 146.104889,205.691498 
	C143.995926,200.603424 142.498138,195.691299 141.000351,190.779175 
	C140.515991,190.746094 140.031631,190.713028 139.547272,190.679962 
	C138.706604,197.481049 137.865936,204.282135 137.025269,211.083221 
	C129.147263,215.604523 121.269272,220.125824 113.186684,224.411835 
z"/>
<path fill="#4CAC4D" opacity="1.000000" stroke="none" 
	d="
M210.024750,58.028809 
	C210.316422,58.951550 210.856445,59.872868 210.861740,60.797253 
	C210.921692,71.253525 210.899734,81.710274 210.899734,92.728333 
	C208.781158,92.842522 207.032837,93.016319 205.284302,93.018593 
	C189.314926,93.039398 173.344437,93.121956 157.377243,92.934311 
	C154.895279,92.905144 152.147110,92.077560 150.000931,90.808998 
	C137.851471,83.627602 125.847893,76.199394 113.451401,68.305557 
	C113.102905,61.161671 113.097649,54.567471 113.092392,47.973274 
	C114.468109,48.369007 115.984879,48.514385 117.198357,49.198074 
	C135.008713,59.232571 152.778671,69.338791 170.499176,79.903259 
	C165.195633,83.945526 159.951157,87.512497 154.146698,91.460327 
	C155.521240,91.856430 155.968597,92.097473 156.416367,92.098183 
	C173.025848,92.124428 189.635773,92.070732 206.244537,92.185318 
	C209.477264,92.207619 210.104919,90.717499 210.076813,87.925766 
	C209.976471,77.960953 210.029648,67.994583 210.024750,58.028809 
z"/>
<path fill="#63489C" opacity="1.000000" stroke="none" 
	d="
M113.058380,179.651901 
	C94.264748,168.944778 75.471123,158.237656 56.833889,147.171722 
	C61.545300,144.067383 66.173256,141.432663 70.612228,138.510849 
	C71.999298,137.597855 72.876389,135.910080 73.986923,134.576965 
	C81.640121,139.312317 89.252243,144.115860 96.960602,148.759644 
	C102.312294,151.983673 107.796402,154.987900 113.588959,158.610809 
	C114.063789,165.861267 114.170998,172.591278 114.278214,179.321274 
	C114.278214,179.321274 114.182228,179.279861 113.989273,179.250854 
	C113.511055,179.297821 113.265083,179.441177 113.058380,179.651901 
z"/>
<path fill="#4454A2" opacity="1.000000" stroke="none" 
	d="
M114.619949,179.247589 
	C114.170998,172.591278 114.063789,165.861267 113.942566,158.679733 
	C124.812279,151.865219 135.708710,145.523758 146.564957,139.114258 
	C148.056900,138.233398 149.349289,137.014557 150.696167,135.626678 
	C156.888885,138.773788 163.119507,142.246429 169.691574,146.116302 
	C170.031967,146.684525 170.030899,146.855484 170.029846,147.026459 
	C151.673798,157.742279 133.317749,168.458099 114.619949,179.247589 
z"/>
<path fill="#20BCD8" opacity="1.000000" stroke="none" 
	d="
M112.733818,48.022758 
	C113.097649,54.567471 113.102905,61.161671 113.109810,68.195587 
	C101.026482,75.754883 88.941505,82.874451 76.511139,90.062668 
	C72.473000,88.551994 68.739189,87.060722 65.100723,85.364906 
	C62.295826,84.057610 59.610657,82.493423 56.530014,80.954926 
	C57.495525,79.758347 58.667233,78.410835 60.131775,77.578735 
	C77.520973,67.698715 94.953835,57.895561 112.733818,48.022758 
z"/>
<path fill="#87FE03" opacity="1.000000" stroke="none" 
	d="
M209.798401,57.996338 
	C210.029648,67.994583 209.976471,77.960953 210.076813,87.925766 
	C210.104919,90.717499 209.477264,92.207619 206.244537,92.185318 
	C189.635773,92.070732 173.025848,92.124428 156.416367,92.098183 
	C155.968597,92.097473 155.521240,91.856430 154.146698,91.460327 
	C159.951157,87.512497 165.195633,83.945526 170.704575,80.170532 
	C177.501694,79.962502 184.034348,79.962502 191.100327,79.962502 
	C191.100327,76.287483 191.100327,73.057800 191.104187,69.356201 
	C196.951859,65.401459 202.795654,61.918636 208.877808,58.181847 
	C209.116196,57.927879 209.572067,57.963867 209.798401,57.996338 
z"/>
<path fill="#D4292F" opacity="1.000000" stroke="none" 
	d="
M196.065826,161.967911 
	C194.593674,160.773285 193.121506,159.578659 191.377777,158.220276 
	C191.106186,150.306854 191.106186,142.557190 191.106186,134.199509 
	C197.533188,134.199509 203.582321,134.199509 209.651184,134.843597 
	C209.447083,141.574478 209.054413,147.661331 209.055893,153.748062 
	C209.056976,158.156708 209.580704,162.565216 209.871353,166.973785 
	C209.907043,167.418427 209.942734,167.863052 209.584991,168.546143 
	C205.468323,166.846771 201.745117,164.908966 198.010727,162.976791 
	C197.999557,162.982437 198.018982,162.990051 197.887665,162.788010 
	C197.545303,162.336288 197.291626,162.142380 196.763016,161.993683 
	C196.530701,161.983093 196.065826,161.967911 196.065826,161.967911 
z"/>
<path fill="#DF4A39" opacity="1.000000" stroke="none" 
	d="
M156.443665,200.153870 
	C157.175034,193.610138 158.200226,186.967194 159.426239,180.361511 
	C159.528244,179.811966 161.120209,179.026276 161.784515,179.208496 
	C162.907913,179.516602 164.268631,180.293625 164.764160,181.264252 
	C165.651947,183.003220 165.672745,185.198624 166.615509,186.891693 
	C167.495132,188.471405 169.102036,189.646164 170.765182,191.029266 
	C166.357697,194.061050 161.573822,197.062714 156.443665,200.153870 
z"/>
<path fill="#DF4A39" opacity="1.000000" stroke="none" 
	d="
M175.463455,189.289597 
	C176.081635,183.862793 176.890244,178.303391 178.091995,172.830307 
	C178.604538,170.496109 179.938217,168.342209 180.898727,166.106369 
	C181.475311,166.206268 182.051910,166.306168 182.628510,166.406067 
	C183.984634,171.536667 185.340759,176.667282 186.926697,182.139816 
	C183.375351,184.718475 179.594193,186.955200 175.463455,189.289597 
z"/>
<path fill="#8A4395" opacity="1.000000" stroke="none" 
	d="
M73.539612,134.430649 
	C72.876389,135.910080 71.999298,137.597855 70.612228,138.510849 
	C66.173256,141.432663 61.545300,144.067383 56.673420,146.892517 
	C56.257435,143.250534 56.158318,139.528976 56.291145,135.295380 
	C56.686874,134.686661 56.813381,134.554306 56.902615,134.386322 
	C62.299175,134.352325 67.695740,134.318329 73.539612,134.430649 
z"/>
<path fill="#DF4A39" opacity="1.000000" stroke="none" 
	d="
M195.715378,162.076508 
	C196.065826,161.967911 196.530701,161.983093 196.898743,162.191849 
	C197.476624,162.649277 197.727356,162.845749 198.018982,162.990051 
	C198.018982,162.990051 197.999557,162.982437 198.020279,163.372498 
	C199.118500,167.223648 200.195999,170.684738 201.273499,174.145844 
	C198.093918,176.089233 194.914322,178.032608 191.384369,180.035706 
	C192.477646,174.125290 193.921295,168.155197 195.715378,162.076508 
z"/>
<path fill="#DF4A39" opacity="1.000000" stroke="none" 
	d="
M137.375763,211.029663 
	C137.865936,204.282135 138.706604,197.481049 139.547272,190.679962 
	C140.031631,190.713028 140.515991,190.746094 141.000351,190.779175 
	C142.498138,195.691299 143.995926,200.603424 145.762817,205.760681 
	C143.263382,207.662582 140.494812,209.319336 137.375763,211.029663 
z"/>
<path fill="#E8453D" opacity="1.000000" stroke="none" 
	d="
M201.609497,174.069336 
	C200.195999,170.684738 199.118500,167.223648 198.031448,163.366852 
	C201.745117,164.908966 205.468323,166.846771 209.507751,168.873108 
	C207.197815,170.638687 204.571655,172.315750 201.609497,174.069336 
z"/>
<path fill="#DD3637" opacity="1.000000" stroke="none" 
	d="
M209.945053,166.511597 
	C209.580704,162.565216 209.056976,158.156708 209.055893,153.748062 
	C209.054413,147.661331 209.447083,141.574478 209.958374,135.155777 
	C210.170135,145.232391 210.094437,155.640900 209.945053,166.511597 
z"/>
<path fill="#5198C5" opacity="1.000000" stroke="none" 
	d="
M170.406036,146.804550 
	C170.030899,146.855484 170.031967,146.684525 170.006561,146.258423 
	C169.985596,137.646408 169.991104,129.289520 169.997787,120.463593 
	C170.387650,120.624557 171.117294,121.256645 171.113480,121.884270 
	C171.063461,130.117416 170.909851,138.349960 170.406036,146.804550 
z"/>
<path fill="#FE9F29" opacity="1.000000" stroke="none" 
	d="
M19.805962,58.807472 
	C19.541105,60.965496 19.089169,62.909748 18.350033,64.925636 
	C18.009554,62.943157 17.956270,60.889050 17.980030,58.398369 
	C18.577677,58.172432 19.098278,58.383068 19.805962,58.807472 
z"/>
<path fill="#DF4A39" opacity="1.000000" stroke="none" 
	d="
M187.492477,182.317719 
	C187.665588,181.975220 188.155838,181.569672 188.980164,181.141266 
	C188.812714,181.497147 188.311157,181.875900 187.492477,182.317719 
z"/>
<path fill="#4454A2" opacity="1.000000" stroke="none" 
	d="
M113.297775,179.741150 
	C113.265083,179.441177 113.511055,179.297821 114.013184,179.204361 
	C113.999092,179.401398 113.768127,179.615891 113.297775,179.741150 
z"/>
<path fill="#63489C" opacity="1.000000" stroke="none" 
	d="
M56.729290,134.349335 
	C56.813381,134.554306 56.686874,134.686661 56.396717,134.838486 
	C56.195831,134.616409 56.291042,134.422653 56.729290,134.349335 
z"/>
<path fill="#E8453D" opacity="1.000000" stroke="none" 
	d="
M197.887665,162.788010 
	C197.727356,162.845749 197.476624,162.649277 197.131042,162.202423 
	C197.291626,162.142380 197.545303,162.336288 197.887665,162.788010 
z"/>
</svg>